<svg xmlns="http://www.w3.org/2000/svg" id="gem-logo" x="0px" y="0px" viewBox="0 0 492 200">
<style type="text/css">
	.st0{fill:#004FFF;}
	.st1{fill:#FF8339;}
</style>
		<polygon class="st0" points="295.82,69.87 299.58,48 229.12,48 229.12,47.99 201.83,47.99 190.39,114.49 190.39,114.49     186.62,136.36 213.9,136.36 284.38,136.36 288.13,114.49 217.67,114.49 219.74,102.29 285.02,102.29 288.43,82.07 223.25,82.07     225.35,69.87   "/>
		<polygon class="st0" points="294.8,136.36 322.05,136.36 332.43,76.09 354.15,136.2 373.76,136.2 418.88,74.88 408.3,136.36     435.6,136.36 450.8,47.99 404.63,47.99 369.29,95.99 352.04,48.1 310.11,47.99   "/>
		<path class="st1" d="M141.47,84.98c-1.08,6.13-2.11,12.64-3.18,18.7H119c0.47-2.73,1.03-5.62,1.5-8.08    c0.35-1.83,0.53-2.92,1.03-4.72c0.91-3.3,4.44-5.73,7.8-5.89L141.47,84.98z"/>
		<path class="st0" d="M151.43,135.62c26.36-1.58,29.43-31.4,29.43-31.4l3.36-19.24h-39.09l-3.15,18.72h11.2    c-0.6,3.51-1.19,4.94-2.92,6.83c-2.89,3.15-7.04,4.84-11.31,4.84H99.32c-10.33,0-8.19-9.88-8.19-9.88s2.48-14.9,4.05-23.66    c2.38-13.26,15-13.45,15-13.45s28.99,0,39.21,0c6.39,0,8.92,3.77,8.68,7.07c-0.22,1.25-0.64,3.31-0.64,3.31h28    c2.43-10.97,2.81-28-16.39-31.22c-8.91-1.5-58.84-1.32-66.46,0c-32.13,4.52-35.32,34.32-35.32,34.32l-4.83,28.04    c-0.04,0.25-0.08,0.5-0.12,0.74c-1.9,13.2,8.32,25.04,21.65,25.49C92.46,136.4,133.68,136.68,151.43,135.62z"/>
		<polygon class="st0" points="76.42,161.93 69.97,170.31 66.49,161.93 61.46,161.93 67.03,174.88 65.56,183.17 70.42,183.17     71.86,175 82.06,161.93   "/>
		<path class="st0" d="M98.26,163.48c-1.33-1.18-3.15-1.78-5.42-1.78h-3.09c-2.45,0-4.48,0.73-6.05,2.16    c-1.56,1.43-2.58,3.44-3.04,5.99l-0.94,5.26c-0.1,0.64-0.15,1.19-0.15,1.64c0,1.31,0.3,2.49,0.9,3.49c0.6,1.01,1.47,1.8,2.58,2.34    c1.09,0.54,2.39,0.82,3.87,0.82h3.09c2.47,0,4.53-0.73,6.12-2.16c1.59-1.43,2.62-3.45,3.06-5.99l0.94-5.26    c0.1-0.64,0.15-1.21,0.15-1.7C100.28,166.29,99.6,164.67,98.26,163.48z M92.93,177.98c-0.73,0.71-1.61,1.05-2.69,1.05h-3.09    c-0.84,0-1.48-0.25-1.94-0.77c-0.48-0.53-0.71-1.24-0.71-2.18c0-0.33,0.03-0.67,0.08-1.01l0.88-4.9c0.24-1.31,0.73-2.34,1.46-3.05    c0.73-0.71,1.6-1.05,2.66-1.05h3.09c0.86,0,1.51,0.25,1.97,0.77c0.47,0.52,0.71,1.26,0.71,2.18c0,0.31-0.03,0.65-0.08,1.01    l-0.88,4.9C94.15,176.24,93.67,177.27,92.93,177.98z"/>
		<path class="st0" d="M117.86,161.93l-2.36,13.53c-0.2,1.14-0.62,2.03-1.26,2.65c-0.63,0.62-1.38,0.92-2.31,0.92h-3.09    c-0.7,0-1.22-0.21-1.6-0.65c-0.39-0.45-0.59-1.07-0.59-1.86c0-0.29,0.03-0.6,0.08-0.92l2.39-13.67h-4.85l-2.39,13.64    c-0.1,0.56-0.15,1.08-0.15,1.53c0,1.88,0.63,3.42,1.88,4.57c1.24,1.15,2.94,1.73,5.06,1.73h3.09c2.27,0,4.18-0.69,5.67-2.05    c1.48-1.35,2.45-3.25,2.87-5.64l2.42-13.78H117.86L117.86,161.93z"/>
		<path class="st0" d="M140.58,163.18c-1.07-0.83-2.51-1.25-4.29-1.25h-10.73l-3.73,21.24h4.85l1.28-7.32h4.59    c0.55,0,0.95,0.16,1.24,0.48c0.31,0.35,0.52,0.9,0.63,1.65l0.75,5.19h4.99l-0.79-5.66c-0.14-0.96-0.33-1.73-0.57-2.29    c-0.18-0.42-0.45-0.8-0.81-1.15c0.93-0.39,1.72-0.92,2.35-1.58c0.77-0.81,1.26-1.77,1.45-2.85l0.35-2.04    c0.06-0.35,0.09-0.68,0.09-0.98C142.24,165.2,141.68,164.04,140.58,163.18z M129.65,166.25h6.43c0.4,0,0.7,0.1,0.92,0.3    c0.21,0.19,0.31,0.46,0.31,0.81c0,0.17-0.01,0.24-0.02,0.28l-0.32,1.9c-0.1,0.6-0.38,1.08-0.86,1.45    c-0.49,0.38-1.08,0.57-1.8,0.57h-5.58L129.65,166.25z"/>
		<polygon class="st0" points="172.32,161.93 154.51,161.93 153.75,166.25 160.23,166.25 157.25,183.17 162.11,183.17     165.08,166.25 171.56,166.25   "/>
		<path class="st0" d="M189.92,163.18c-1.07-0.83-2.51-1.25-4.29-1.25H174.9l-3.73,21.24h4.85l1.28-7.32h4.59    c0.55,0,0.95,0.16,1.24,0.48c0.31,0.35,0.52,0.9,0.63,1.65l0.75,5.19h4.99l-0.79-5.66c-0.14-0.96-0.33-1.73-0.57-2.29    c-0.18-0.42-0.45-0.8-0.81-1.15c0.93-0.39,1.72-0.92,2.35-1.58c0.77-0.81,1.26-1.77,1.45-2.85l0.35-2.04    c0.06-0.35,0.09-0.68,0.09-0.98C191.58,165.2,191.01,164.04,189.92,163.18z M178.99,166.25h6.43c0.4,0,0.7,0.1,0.92,0.3    c0.21,0.19,0.31,0.46,0.31,0.81c0,0.17-0.01,0.24-0.02,0.28l-0.32,1.9c-0.1,0.6-0.38,1.08-0.86,1.45    c-0.49,0.38-1.08,0.57-1.8,0.57h-5.58L178.99,166.25z"/>
		<path class="st0" d="M208.64,161.93l-2.36,13.53c-0.2,1.14-0.62,2.03-1.26,2.65c-0.63,0.62-1.38,0.92-2.31,0.92h-3.09    c-0.7,0-1.22-0.21-1.6-0.65c-0.39-0.45-0.59-1.07-0.59-1.86c0-0.29,0.03-0.6,0.08-0.92l2.39-13.67h-4.85l-2.39,13.64    c-0.1,0.56-0.15,1.08-0.15,1.53c0,1.88,0.63,3.42,1.88,4.57c1.24,1.15,2.94,1.73,5.06,1.73h3.09c2.27,0,4.18-0.69,5.67-2.05    c1.48-1.35,2.45-3.25,2.87-5.64l2.42-13.78H208.64L208.64,161.93z"/>
		<path class="st0" d="M230.83,163.15c-1.12-0.97-2.65-1.46-4.56-1.46H223c-2.04,0-3.76,0.49-5.1,1.45    c-1.36,0.97-2.2,2.35-2.51,4.08l-0.29,1.63c-0.06,0.32-0.1,0.64-0.1,0.96c0,2.32,1.66,3.78,4.92,4.34l5.17,0.91    c0.51,0.08,0.89,0.24,1.15,0.45c0.21,0.18,0.32,0.39,0.32,0.65l-0.2,1.24c-0.08,0.48-0.36,0.86-0.86,1.16    c-0.54,0.32-1.2,0.48-1.98,0.48h-3.21c-0.63,0-1.11-0.18-1.46-0.55c-0.36-0.37-0.53-0.88-0.53-1.56c0-0.08,0.01-0.27,0.06-0.68    l0.05-0.45h-4.77l-0.06,0.34c-0.08,0.47-0.12,0.96-0.12,1.47c0,1.77,0.6,3.2,1.79,4.24c1.17,1.04,2.79,1.56,4.81,1.56h3.33    c2.12,0,3.88-0.49,5.24-1.46c1.38-0.98,2.22-2.37,2.51-4.13l0.32-1.95c0.04-0.38,0.06-0.62,0.06-0.77c0-2.28-1.68-3.74-5-4.34    l-5.16-0.93c-1.39-0.26-1.39-0.86-1.39-1.09c0-0.14,0.01-0.2,0.02-0.25l0.15-0.82c0.08-0.47,0.34-0.83,0.81-1.12    c0.5-0.31,1.12-0.46,1.86-0.46h3.27c0.51,0,0.9,0.14,1.18,0.43c0.29,0.29,0.42,0.7,0.42,1.23c0,0.07-0.01,0.22-0.06,0.59    l-0.06,0.46h4.76l0.07-0.33c0.08-0.41,0.12-0.86,0.12-1.33C232.54,165.47,231.97,164.13,230.83,163.15z"/>
		<polygon class="st0" points="252.5,161.93 234.69,161.93 233.94,166.25 240.42,166.25 237.44,183.17 242.29,183.17 245.26,166.25     251.75,166.25   "/>
		<path class="st0" d="M270.69,166.25l0.75-4.32h-16.38l-3.18,18.03c-0.06,0.39-0.06,0.54-0.06,0.61c0,0.78,0.26,1.41,0.77,1.89    c0.5,0.47,1.19,0.71,2.03,0.71h13.06l0.79-4.32h-11.53l0.76-4.38h10.65l0.76-4.32h-10.65l0.7-3.91h11.53L270.69,166.25    L270.69,166.25z"/>
		<path class="st0" d="M288.67,163.6c-1.34-1.11-3.18-1.67-5.47-1.67h-9.59l-3.18,18.03c-0.06,0.39-0.06,0.54-0.06,0.61    c0,0.78,0.26,1.41,0.77,1.89c0.5,0.47,1.19,0.71,2.03,0.71h7.47c2.48,0,4.52-0.69,6.05-2.04c1.52-1.35,2.52-3.35,2.96-5.94    l0.96-5.73c0.08-0.61,0.12-1.04,0.12-1.31C290.73,166.26,290.04,164.73,288.67,163.6z M280.7,178.8h-5.21l2.19-12.49h5.23    c0.91,0,1.63,0.23,2.15,0.69c0.51,0.45,0.76,1.04,0.76,1.82c0,0.37-0.03,0.57-0.05,0.69l-0.96,5.37    C284.35,177.51,283.01,178.8,280.7,178.8z"/>
		<path class="st0" d="M320.82,170.66l0.47-2.72c0.06-0.37,0.09-0.74,0.09-1.09c0-1.5-0.56-2.72-1.67-3.61    c-1.08-0.87-2.55-1.32-4.37-1.32H304.7l-3.73,21.24h4.85l1.14-6.45h6.63c1.98,0,3.61-0.54,4.86-1.6    C319.69,174.06,320.49,172.56,320.82,170.66z M308.79,166.25h6.34c0.44,0,0.77,0.11,1.02,0.34c0.24,0.22,0.35,0.53,0.35,0.94    c0,0.06-0.01,0.2-0.05,0.45l-0.47,2.37c-0.12,0.67-0.38,1.17-0.79,1.53c-0.4,0.35-0.9,0.53-1.53,0.53h-5.96L308.79,166.25z"/>
		<path class="st0" d="M331.63,161.93h-2.05l-12.05,21.24h5.29l2.63-4.76h7.1l0.93,4.76h4.89L334.3,164    C334.01,162.65,333.07,161.93,331.63,161.93z M331.89,174.22h-4.3l3.2-5.8L331.89,174.22z"/>
		<path class="st0" d="M358.38,163.18c-1.07-0.83-2.51-1.25-4.29-1.25h-10.73l-3.73,21.24h4.85l1.28-7.32h4.59    c0.55,0,0.95,0.16,1.24,0.48c0.31,0.35,0.52,0.9,0.63,1.65l0.75,5.19h4.99l-0.79-5.66c-0.14-0.96-0.33-1.73-0.57-2.29    c-0.18-0.42-0.45-0.8-0.81-1.15c0.93-0.39,1.72-0.92,2.35-1.58c0.77-0.81,1.26-1.77,1.45-2.85l0.35-2.04    c0.06-0.35,0.09-0.68,0.09-0.98C360.04,165.2,359.49,164.04,358.38,163.18z M347.46,166.25h6.43c0.4,0,0.7,0.1,0.92,0.3    c0.21,0.19,0.31,0.46,0.31,0.81c0,0.17-0.01,0.24-0.02,0.28l-0.32,1.9c-0.1,0.6-0.38,1.08-0.86,1.45    c-0.49,0.38-1.08,0.57-1.8,0.57h-5.58L347.46,166.25z"/>
		<polygon class="st0" points="380.19,161.93 362.38,161.93 361.63,166.25 368.1,166.25 365.13,183.17 369.98,183.17 372.96,166.25     379.44,166.25   "/>
		<polygon class="st0" points="393.21,175.01 386.13,161.93 382.13,161.93 378.39,183.17 383.16,183.17 385.47,170.09     392.55,183.17 396.55,183.17 400.29,161.93 395.52,161.93   "/>
		<path class="st0" d="M416.29,174.48l0.76-4.32H406.4l0.7-3.91h11.53l0.75-4.32H403l-3.18,18.03c-0.06,0.39-0.06,0.54-0.06,0.61    c0,0.78,0.26,1.41,0.77,1.89c0.5,0.47,1.19,0.71,2.03,0.71h13.06l0.79-4.32h-11.53l0.76-4.38h10.65V174.48z"/>
		<path class="st0" d="M437.17,163.18c-1.07-0.83-2.51-1.25-4.29-1.25h-10.73l-3.73,21.24h4.85l1.28-7.32h4.59    c0.55,0,0.95,0.16,1.24,0.48c0.31,0.35,0.52,0.9,0.63,1.65l0.75,5.19h4.99l-0.79-5.66c-0.14-0.96-0.33-1.73-0.57-2.29    c-0.18-0.42-0.45-0.8-0.81-1.15c0.93-0.39,1.72-0.92,2.35-1.58c0.77-0.81,1.26-1.77,1.45-2.85l0.35-2.04    c0.06-0.35,0.09-0.68,0.09-0.98C438.83,165.2,438.29,164.04,437.17,163.18z M426.26,166.25h6.43c0.4,0,0.7,0.1,0.92,0.3    c0.21,0.19,0.31,0.46,0.31,0.81c0,0.17-0.01,0.24-0.02,0.28l-0.32,1.9c-0.1,0.6-0.38,1.08-0.86,1.45    c-0.49,0.38-1.08,0.57-1.8,0.57h-5.58L426.26,166.25z"/>
</svg>